<svg version="1.2" xmlns="http://www.w3.org/2000/svg" viewBox="0 0 1920 1080" width="1920" height="1080">
	<title>TrackMyFitnessLogo</title>
	<style>
		.s0 { fill: #1ed73c } 
	</style>
	<path id="  TRACKMYFITNESS  " class="s0" aria-label="

TRACKMYFITNESS

"  d="m31.4 498.5h43.3l-18.6 112.5h38.6l18.5-112.5h43.3l5.4-31.5h-125.2zm121.3 112.5h39.1l7.9-47.5h13.5l17.4 47.5h42.4l-20.3-53.7c16.5-7.4 28.1-21.4 31.3-41.4 5.1-30.6-13.2-48.9-45.3-48.9h-62.1zm52.1-77.9l5.8-34.9h13.8c13.5 0 20.8 5.4 18.8 17.7-1.9 12.4-10.9 17.2-24.7 17.2zm119.4 77.9l13-27.6h47.4l3.8 27.6h42.2l-23.7-144h-53.4l-71.4 144zm26.6-56.8l22.3-47.6h1.1l6.4 47.6zm235.9-33.2c2.8-35.7-20.6-56-58.2-56-37.5 0-71.2 24.5-79 71.7-8 49 18.2 76.3 58.8 76.3 41.2 0 66.3-29.6 72.2-54h-39.3c-4 12.1-15 19.9-30.7 19.9-17.8 0-25.7-12.3-21.7-37.7 4.5-26.1 18.8-42.1 39.4-42.1 14.3 0 20.5 8.7 19.4 21.9zm3 90h39.1l6.2-36.9 16-17.1 23.1 54h46.7l-36.3-79.9 59-64.1h-45.5l-52.9 58.2h-2l9.6-58.2h-39.1zm165.4-144l-23.9 144h38.2l14.1-83.8h1.1l18.3 82.7h23.1l45.5-82.2h1.1l-13.7 83.3h38.2l23.9-144h-48.6l-47 81.5h-1.7l-20-81.5zm178.6 0l36.6 98.7-7.6 45.3h38.8l7.6-45.3 69.2-98.7h-43.6l-37.7 58.5h-1.4l-18.3-58.5zm133.3 144h39.1l9.3-56.3h56l5.3-31.5h-55.9l3.9-24.7h62.2l5.3-31.5h-101.2zm178.6-144h-39.1l-23.9 144h39zm9.3 31.5h43.3l-18.5 112.5h38.5l18.6-112.5h43.3l5.3-31.5h-125.1zm269.7-31.5h-39.1l-12.4 75.4h-1.1l-38.8-75.4h-33.2l-23.9 144h39.1l12.7-75.7h0.8l39.4 75.7h32.6zm-5.3 144h103.5l5.3-31.5h-64.4l3.9-24.8h59.4l5.3-31.5h-59.3l3.9-24.7h64.7l5.3-31.5h-103.7zm217.1-99h37.4c4.8-28.4-14.1-47-48.9-47-34.4 0-61.4 18.3-65.9 45.9-3.6 22.5 9.9 34.8 34.4 40.5l13.7 3.1c15.5 3.3 20.6 7.5 19.5 14-1.2 7-8.5 12.1-21.1 12.1-15 0-22.8-7-21.1-20.2h-37.2c-5.9 36 16.1 52.3 53.5 52.3 36.5 0 61-15.8 65.8-44.2 3.6-21.9-7-37.4-37.7-44.1l-11.2-2.6c-13.3-2.8-18.9-7-17.2-13.8 1.1-6.4 7-10.9 19.1-10.9 12.7 0 17.7 5.6 16.9 14.9zm131.9 0h37.4c4.8-28.4-14-47-48.9-47-34.3 0-61.3 18.3-65.8 45.9-3.7 22.5 9.8 34.8 34.3 40.5l13.8 3.1c15.4 3.3 20.5 7.5 19.4 14-1.2 7-8.5 12.1-21.1 12.1-14.9 0-22.8-7-21.1-20.2h-37.2c-5.9 36 16.1 52.3 53.5 52.3 36.6 0 61-15.8 65.8-44.2 3.7-21.9-7-37.4-37.7-44.1l-11.2-2.6c-13.3-2.8-18.9-7-17.2-13.8 1.1-6.4 7-10.9 19.1-10.9 12.7 0 17.8 5.6 16.9 14.9z"/>
</svg>